# Blender v2.82 (sub 7) OBJ File: ''
# www.blender.org
mtllib expander4.mtl
o 1EXP4_Cube.002
v -0.027069 -0.677561 -1.104121
v 0.000001 -0.623421 -1.066824
v 0.027071 -0.677561 -1.104121
v -0.073615 -0.724106 -0.235134
v 0.000000 -0.576875 -0.235133
v 0.073616 -0.724106 -0.235133
v -0.115659 -0.787050 -0.914122
v -0.082332 -0.867508 -0.914122
v -0.071552 -0.856729 -0.857229
v -0.100414 -0.787050 -0.857229
v -0.042103 -0.827279 -0.815581
v -0.058766 -0.787050 -0.815581
v -0.001874 -0.787050 -0.800337
v -0.001874 -0.843943 -0.815581
v -0.001874 -0.885591 -0.857229
v -0.001874 -0.900835 -0.914122
v 0.078584 -0.867508 -0.914122
v 0.067805 -0.856729 -0.857229
v 0.038355 -0.827279 -0.815581
v 0.055019 -0.787050 -0.815581
v 0.096667 -0.787050 -0.857229
v 0.111911 -0.787050 -0.914122
v 0.078584 -0.706592 -0.914122
v 0.067805 -0.717372 -0.857229
v 0.038355 -0.746821 -0.815581
v -0.001874 -0.730158 -0.815581
v -0.001874 -0.688510 -0.857229
v -0.001874 -0.673265 -0.914122
v -0.082332 -0.706592 -0.914122
v -0.071553 -0.717372 -0.857229
v -0.042103 -0.746821 -0.815581
v -0.082332 -0.706592 -1.057070
v -0.115658 -0.787050 -1.057070
v -0.001874 -0.673265 -1.057070
v 0.078584 -0.706592 -1.057070
v 0.111911 -0.787050 -1.057070
v 0.078584 -0.867508 -1.057070
v -0.001874 -0.900835 -1.057070
v -0.082332 -0.867508 -1.057070
v -0.001874 -0.787050 -1.170855
v -0.042103 -0.827279 -1.155611
v -0.058766 -0.787050 -1.155611
v -0.071552 -0.856729 -1.113963
v -0.100414 -0.787050 -1.113963
v -0.001874 -0.885591 -1.113963
v -0.001874 -0.843943 -1.155611
v 0.038355 -0.827279 -1.155611
v 0.067805 -0.856729 -1.113963
v 0.096667 -0.787050 -1.113963
v 0.055019 -0.787050 -1.155611
v 0.038355 -0.746821 -1.155611
v 0.067805 -0.717372 -1.113962
v -0.001874 -0.688510 -1.113963
v -0.001874 -0.730158 -1.155611
v -0.042103 -0.746821 -1.155611
v -0.071552 -0.717372 -1.113963
vt 0.226690 0.908819
vt 0.235325 0.896921
vt 0.243960 0.908819
vt 0.211842 0.631617
vt 0.235325 0.631617
vt 0.258808 0.631617
vt 0.293360 0.284216
vt 0.323140 0.285322
vt 0.321670 0.306587
vt 0.292888 0.305747
vt 0.508891 0.860394
vt 0.532975 0.802249
vt 0.557550 0.826824
vt 0.543645 0.860394
vt 0.591119 0.860394
vt 0.591120 0.812919
vt 0.591120 0.778165
vt 0.355321 0.287287
vt 0.350846 0.310005
vt 0.117524 0.285797
vt 0.148250 0.283334
vt 0.149913 0.304228
vt 0.121935 0.307658
vt 0.649264 0.802249
vt 0.624689 0.826824
vt 0.638594 0.860394
vt 0.673348 0.860394
vt 0.177268 0.282613
vt 0.177562 0.302802
vt 0.205781 0.282749
vt 0.205336 0.303452
vt 0.649264 0.918538
vt 0.624689 0.893963
vt 0.591119 0.907869
vt 0.591120 0.942623
vt 0.234440 0.283363
vt 0.233879 0.304630
vt 0.263761 0.283501
vt 0.263374 0.305778
vt 0.532975 0.918538
vt 0.557550 0.893963
vt 0.263924 0.236259
vt 0.293010 0.236426
vt 0.234941 0.236722
vt 0.205941 0.236294
vt 0.177545 0.235680
vt 0.148546 0.235377
vt 0.116978 0.233076
vt 0.323168 0.235891
vt 0.354738 0.233216
vt 0.591120 0.860394
vt 0.557550 0.826824
vt 0.543645 0.860394
vt 0.532975 0.802249
vt 0.508891 0.860394
vt 0.292565 0.215084
vt 0.321714 0.213857
vt 0.350402 0.211133
vt 0.591120 0.812919
vt 0.591120 0.778165
vt 0.624689 0.826824
vt 0.649264 0.802249
vt 0.121331 0.211132
vt 0.149843 0.213896
vt 0.178033 0.215414
vt 0.638595 0.860394
vt 0.673348 0.860394
vt 0.624689 0.893963
vt 0.649264 0.918538
vt 0.206046 0.215343
vt 0.235011 0.214923
vt 0.591120 0.907869
vt 0.591120 0.942623
vt 0.557550 0.893963
vt 0.532975 0.918538
vt 0.263935 0.215640
vn -0.6365 -0.3015 -0.7099
vn 0.0000 0.9546 -0.2979
vn 0.6365 -0.3015 -0.7099
vn -0.8446 -0.5301 -0.0743
vn 0.0000 0.9985 -0.0541
vn 0.8446 -0.5301 -0.0743
vn -0.9919 0.0000 0.1266
vn -0.7014 -0.7014 0.1266
vn -0.6225 -0.6225 0.4744
vn -0.8803 0.0000 0.4744
vn -0.3855 -0.3855 0.8383
vn -0.5452 0.0000 0.8383
vn 0.0000 0.0000 1.0000
vn 0.0000 -0.5452 0.8383
vn 0.0000 -0.8803 0.4744
vn 0.0000 -0.9919 0.1266
vn 0.7014 -0.7014 0.1266
vn 0.6225 -0.6225 0.4744
vn 0.3855 -0.3855 0.8383
vn 0.5452 0.0000 0.8383
vn 0.8803 0.0000 0.4744
vn 0.9919 0.0000 0.1266
vn 0.7014 0.7014 0.1266
vn 0.6225 0.6225 0.4744
vn 0.3855 0.3855 0.8383
vn 0.0000 0.5452 0.8383
vn 0.0000 0.8803 0.4744
vn 0.0000 0.9919 0.1266
vn -0.7014 0.7014 0.1266
vn -0.6225 0.6225 0.4744
vn -0.3855 0.3855 0.8383
vn -0.7014 0.7014 -0.1266
vn -0.9919 0.0000 -0.1266
vn 0.0000 0.9919 -0.1266
vn 0.7014 0.7014 -0.1266
vn 0.9919 0.0000 -0.1266
vn 0.7014 -0.7014 -0.1266
vn 0.0000 -0.9919 -0.1266
vn -0.7014 -0.7014 -0.1266
vn 0.0000 0.0000 -1.0000
vn -0.3855 -0.3855 -0.8383
vn -0.5452 0.0000 -0.8383
vn -0.6225 -0.6225 -0.4744
vn -0.8803 0.0000 -0.4744
vn 0.0000 -0.8803 -0.4744
vn 0.0000 -0.5452 -0.8383
vn 0.3855 -0.3855 -0.8383
vn 0.6225 -0.6225 -0.4744
vn 0.8803 0.0000 -0.4744
vn 0.5452 0.0000 -0.8383
vn 0.3855 0.3855 -0.8383
vn 0.6225 0.6225 -0.4744
vn 0.0000 0.8803 -0.4744
vn 0.0000 0.5452 -0.8383
vn -0.3855 0.3855 -0.8383
vn -0.6225 0.6225 -0.4744
usemtl Material.001_PlayerBaseTOP.psd.002
s 1
f 1/1/1 2/2/2 3/3/3
f 2/2/2 1/1/1 4/4/4 5/5/5
f 2/2/2 5/5/5 6/6/6 3/3/3
f 6/6/6 4/4/4 1/1/1 3/3/3
f 7/7/7 8/8/8 9/9/9 10/10/10
f 10/11/10 9/12/9 11/13/11 12/14/12
f 12/14/12 11/13/11 13/15/13
f 11/13/11 14/16/14 13/15/13
f 9/12/9 15/17/15 14/16/14 11/13/11
f 8/8/8 16/18/16 15/19/15 9/9/9
f 16/20/16 17/21/17 18/22/18 15/23/15
f 15/17/15 18/24/18 19/25/19 14/16/14
f 14/16/14 19/25/19 13/15/13
f 19/25/19 20/26/20 13/15/13
f 18/24/18 21/27/21 20/26/20 19/25/19
f 17/21/17 22/28/22 21/29/21 18/22/18
f 22/28/22 23/30/23 24/31/24 21/29/21
f 21/27/21 24/32/24 25/33/25 20/26/20
f 20/26/20 25/33/25 13/15/13
f 25/33/25 26/34/26 13/15/13
f 24/32/24 27/35/27 26/34/26 25/33/25
f 23/30/23 28/36/28 27/37/27 24/31/24
f 28/36/28 29/38/29 30/39/30 27/37/27
f 27/35/27 30/40/30 31/41/31 26/34/26
f 26/34/26 31/41/31 13/15/13
f 31/41/31 12/14/12 13/15/13
f 30/40/30 10/11/10 12/14/12 31/41/31
f 29/38/29 7/7/7 10/10/10 30/39/30
f 7/7/7 29/38/29 32/42/32 33/43/33
f 29/38/29 28/36/28 34/44/34 32/42/32
f 28/36/28 23/30/23 35/45/35 34/44/34
f 23/30/23 22/28/22 36/46/36 35/45/35
f 22/28/22 17/21/17 37/47/37 36/46/36
f 17/21/17 16/20/16 38/48/38 37/47/37
f 16/18/16 8/8/8 39/49/39 38/50/38
f 8/8/8 7/7/7 33/43/33 39/49/39
f 40/51/40 41/52/41 42/53/42
f 42/53/42 41/52/41 43/54/43 44/55/44
f 44/56/44 43/57/43 39/49/39 33/43/33
f 43/57/43 45/58/45 38/50/38 39/49/39
f 41/52/41 46/59/46 45/60/45 43/54/43
f 40/51/40 46/59/46 41/52/41
f 40/51/40 47/61/47 46/59/46
f 46/59/46 47/61/47 48/62/48 45/60/45
f 45/63/45 48/64/48 37/47/37 38/48/38
f 48/64/48 49/65/49 36/46/36 37/47/37
f 47/61/47 50/66/50 49/67/49 48/62/48
f 40/51/40 50/66/50 47/61/47
f 40/51/40 51/68/51 50/66/50
f 50/66/50 51/68/51 52/69/52 49/67/49
f 49/65/49 52/70/52 35/45/35 36/46/36
f 52/70/52 53/71/53 34/44/34 35/45/35
f 51/68/51 54/72/54 53/73/53 52/69/52
f 40/51/40 54/72/54 51/68/51
f 40/51/40 55/74/55 54/72/54
f 54/72/54 55/74/55 56/75/56 53/73/53
f 53/71/53 56/76/56 32/42/32 34/44/34
f 56/76/56 44/56/44 33/43/33 32/42/32
f 55/74/55 42/53/42 44/55/44 56/75/56
f 40/51/40 42/53/42 55/74/55
