# Blender v2.82 (sub 7) OBJ File: ''
# www.blender.org
mtllib expander1.mtl
o 1EXP1_Cube.004
v 0.000001 -0.621763 -1.066824
v 0.027071 -0.675903 -1.104121
v -0.027069 -0.675903 -1.104121
v -0.073615 -0.722449 -0.235134
v 0.000000 -0.575218 -0.235133
v 0.073616 -0.722449 -0.235133
v -0.000001 -0.789182 -1.143470
v -0.080143 -0.869324 -1.143470
v -0.113339 -0.789182 -1.143470
v -0.000001 -0.789182 -0.836277
v -0.113340 -0.789182 -0.836277
v -0.080144 -0.869324 -0.836277
v -0.080143 -0.709039 -1.143470
v -0.080144 -0.709039 -0.836277
v -0.000001 -0.675843 -1.143470
v -0.000001 -0.675843 -0.836277
v 0.080142 -0.709039 -1.143470
v 0.080142 -0.709039 -0.836277
v 0.113338 -0.789182 -1.143470
v 0.113338 -0.789182 -0.836277
v 0.080142 -0.869324 -1.143470
v 0.080142 -0.869325 -0.836277
v -0.000001 -0.902521 -1.143470
v -0.000001 -0.902521 -0.836277
vt 0.248327 0.840266
vt 0.241049 0.850293
vt 0.255605 0.850293
vt 0.248327 0.616663
vt 0.228535 0.616663
vt 0.268119 0.616663
vt 0.060053 0.289584
vt 0.026665 0.256195
vt 0.012835 0.289584
vt 0.060053 0.289584
vt 0.012835 0.289584
vt 0.026665 0.256195
vt 0.026665 0.322972
vt 0.026665 0.322972
vt 0.060053 0.336802
vt 0.060053 0.336802
vt 0.093442 0.322972
vt 0.093442 0.322972
vt 0.107272 0.289584
vt 0.107272 0.289584
vt 0.093442 0.256195
vt 0.093442 0.256195
vt 0.060053 0.242365
vt 0.060053 0.242365
vt 0.328922 0.209954
vt 0.328922 0.316610
vt 0.298804 0.316610
vt 0.298804 0.209954
vt 0.268687 0.316610
vt 0.268686 0.209954
vt 0.238569 0.316610
vt 0.238569 0.209954
vt 0.208451 0.316610
vt 0.208451 0.209954
vt 0.178333 0.316610
vt 0.178333 0.209954
vt 0.148215 0.316610
vt 0.148216 0.209954
vt 0.118097 0.316610
vt 0.118098 0.209954
vt 0.359040 0.209954
vt 0.359040 0.316610
vn 0.0000 -0.9546 0.2979
vn 0.6365 0.3015 0.7099
vn -0.6365 0.3015 0.7099
vn 0.0000 -0.9985 0.0541
vn 0.8446 0.5301 0.0743
vn -0.8446 0.5301 0.0743
vn 0.0000 0.0000 -1.0000
vn -0.5490 -0.5490 -0.6302
vn -0.7764 0.0000 -0.6302
vn 0.0000 0.0000 1.0000
vn -0.7764 0.0000 0.6302
vn -0.5490 -0.5490 0.6302
vn -0.5490 0.5490 -0.6302
vn -0.5490 0.5490 0.6302
vn 0.0000 0.7764 -0.6302
vn 0.0000 0.7764 0.6302
vn 0.5490 0.5490 -0.6302
vn 0.5490 0.5490 0.6302
vn 0.7764 0.0000 -0.6302
vn 0.7764 0.0000 0.6302
vn 0.5490 -0.5490 -0.6302
vn 0.5490 -0.5490 0.6302
vn 0.0000 -0.7764 -0.6302
vn 0.0000 -0.7764 0.6302
usemtl Material.001_PlayerBaseTOP.psd.001
s 1
f 1/1/1 3/2/2 2/3/3
f 1/1/1 5/4/4 4/5/5 3/2/2
f 2/3/3 6/6/6 5/4/4 1/1/1
f 2/3/3 3/2/2 4/5/5 6/6/6
f 7/7/7 8/8/8 9/9/9
f 10/10/10 11/11/11 12/12/12
f 7/7/7 9/9/9 13/13/13
f 10/10/10 14/14/14 11/11/11
f 7/7/7 13/13/13 15/15/15
f 10/10/10 16/16/16 14/14/14
f 7/7/7 15/15/15 17/17/17
f 10/10/10 18/18/18 16/16/16
f 7/7/7 17/17/17 19/19/19
f 10/10/10 20/20/20 18/18/18
f 7/7/7 19/19/19 21/21/21
f 10/10/10 22/22/22 20/20/20
f 7/7/7 21/21/21 23/23/23
f 10/10/10 24/24/24 22/22/22
f 7/7/7 23/23/23 8/8/8
f 10/10/10 12/12/12 24/24/24
f 8/25/8 12/26/12 11/27/11 9/28/9
f 9/28/9 11/27/11 14/29/14 13/30/13
f 13/30/13 14/29/14 16/31/16 15/32/15
f 15/32/15 16/31/16 18/33/18 17/34/17
f 17/34/17 18/33/18 20/35/20 19/36/19
f 19/36/19 20/35/20 22/37/22 21/38/21
f 21/38/21 22/37/22 24/39/24 23/40/23
f 23/41/23 24/42/24 12/26/12 8/25/8
