# Blender v2.82 (sub 7) OBJ File: ''
# www.blender.org
mtllib top.mtl
o 1TOP_Cube.013
v -0.046824 0.299095 0.136256
v -0.140472 0.299095 0.136256
v -0.096824 0.264075 0.196912
v -0.046824 0.264075 0.196912
v 0.140472 0.299095 0.136256
v 0.046824 0.299095 0.136256
v 0.046824 0.264075 0.196912
v 0.096824 0.264075 0.196912
v -0.816026 0.092223 0.494568
v -0.096824 0.179368 0.343629
v 0.816025 0.092222 0.494569
v 0.096824 0.179368 0.343629
v -0.634072 -0.000000 0.654301
v 0.634071 -0.000000 0.654301
v -0.020296 0.092223 -0.953983
v -0.199648 0.229055 -0.169335
v -0.094589 0.299095 -0.108679
v -0.047765 0.299095 -0.189780
v -0.249605 0.000000 -0.876273
v -0.883677 -0.000000 0.221971
v -0.836322 0.092222 0.459414
v -0.141413 0.299095 -0.027577
v -0.246472 0.229055 -0.088233
v -0.188237 0.299095 0.053524
v 0.199648 0.229055 -0.169334
v 0.246472 0.229055 -0.088233
v 0.836322 0.092223 0.459415
v 0.020297 0.092222 -0.953983
v 0.094589 0.299095 -0.108679
v 0.047765 0.299095 -0.189780
v 0.883677 -0.000000 0.221973
v 0.249607 0.000000 -0.876272
v 0.141413 0.299095 -0.027577
v 0.188237 0.299095 0.053524
v 0.199648 0.000000 -0.169334
v 0.246472 0.000000 -0.088233
v 0.141413 0.000000 -0.027577
v 0.188237 -0.000000 0.053524
v 0.836322 -0.000000 0.459415
v 0.020297 0.000000 -0.953983
v 0.047765 0.000000 -0.189780
v 0.094589 0.000000 -0.108679
v -0.141413 0.000000 -0.027577
v -0.246472 0.000000 -0.088233
v -0.188237 -0.000000 0.053524
v -0.094589 0.000000 -0.108679
v -0.047765 0.000000 -0.189780
v -0.836322 -0.000000 0.459414
v -0.020296 0.000000 -0.953983
v -0.199648 0.000000 -0.169335
v 0.140472 -0.000000 0.136256
v 0.046824 -0.000000 0.136256
v -0.046824 -0.000000 0.136256
v -0.140472 -0.000000 0.136256
v 0.816025 -0.000000 0.494569
v -0.816026 -0.000000 0.494568
v -0.046824 -0.000000 0.196912
v 0.046824 -0.000000 0.196912
v -0.096824 -0.000000 0.196912
v -0.096824 -0.000000 0.343629
v 0.096824 -0.000000 0.196912
v 0.096824 -0.000000 0.343629
v -0.169672 1.430603 0.264221
v -0.217858 0.171021 0.279618
v -0.132350 0.171021 0.302530
v -0.155262 0.171021 0.217022
v 0.162323 0.814424 0.255840
v 0.213695 0.171021 0.240958
v 0.127474 0.171021 0.220900
v 0.153213 0.171021 0.305599
v 0.000000 -0.980534 -0.000000
v 0.299477 -0.839746 -0.000000
v 0.149738 -0.839746 0.259355
v 0.000000 -0.453046 -0.000000
v 0.149738 -0.453046 0.259355
v 0.299477 -0.453046 -0.000000
v -0.149738 -0.839746 0.259355
v -0.149738 -0.453046 0.259355
v -0.299477 -0.839746 -0.000000
v -0.299477 -0.453046 -0.000000
v -0.149738 -0.839746 -0.259355
v -0.149739 -0.453046 -0.259354
v 0.149738 -0.839746 -0.259354
v 0.149738 -0.453046 -0.259355
vt 0.524910 0.750942
vt 0.524910 0.780635
vt 0.505678 0.766795
vt 0.505678 0.750942
vt 0.524910 0.691556
vt 0.524910 0.721249
vt 0.505678 0.721249
vt 0.505678 0.705395
vt 0.411300 0.994833
vt 0.459158 0.766795
vt 0.411299 0.477357
vt 0.459158 0.705395
vt 0.360653 0.937141
vt 0.360653 0.535050
vt 0.064384 0.991110
vt 0.139530 0.747218
vt 0.177994 0.747218
vt 0.177994 0.776911
vt 0.013738 0.933418
vt 0.013737 0.531326
vt 0.064384 0.473634
vt 0.177995 0.717525
vt 0.139530 0.717525
vt 0.177994 0.687832
vt 0.311713 0.719554
vt 0.311713 0.749247
vt 0.236567 0.993139
vt 0.236567 0.475663
vt 0.350177 0.719554
vt 0.350178 0.689861
vt 0.185921 0.935447
vt 0.185920 0.533355
vt 0.350177 0.749247
vt 0.350178 0.778940
vt 0.311713 0.719554
vt 0.311713 0.749247
vt 0.350177 0.749247
vt 0.350178 0.778940
vt 0.236567 0.993139
vt 0.236567 0.475663
vt 0.350178 0.689861
vt 0.350177 0.719554
vt 0.177995 0.717525
vt 0.139530 0.717525
vt 0.177994 0.687832
vt 0.177994 0.747218
vt 0.177994 0.776911
vt 0.064384 0.473634
vt 0.064384 0.991110
vt 0.139530 0.747218
vt 0.524910 0.691556
vt 0.524910 0.721249
vt 0.524910 0.750942
vt 0.524910 0.780635
vt 0.411299 0.477357
vt 0.411300 0.994833
vt 0.505678 0.750942
vt 0.505678 0.721249
vt 0.505678 0.766795
vt 0.459158 0.766795
vt 0.505678 0.705395
vt 0.459158 0.705395
vt 0.756005 0.985102
vt 0.732776 0.377895
vt 0.773996 0.377895
vt 0.762951 0.377895
vt 0.690050 0.796061
vt 0.714815 0.485895
vt 0.673250 0.485895
vt 0.685658 0.485895
vt 0.590552 0.862002
vt 0.692750 0.862002
vt 0.641651 0.773496
vt 0.590552 0.862002
vt 0.641651 0.773496
vt 0.692750 0.862002
vt 0.539453 0.773496
vt 0.539453 0.773496
vt 0.488354 0.862002
vt 0.488354 0.862002
vt 0.539453 0.950508
vt 0.539453 0.950508
vt 0.641651 0.950508
vt 0.641651 0.950508
vt 0.595296 0.463392
vt 0.595296 0.392295
vt 0.710693 0.392295
vt 0.710693 0.463392
vt 0.018308 0.463392
vt 0.018307 0.392294
vt 0.133706 0.392294
vt 0.133706 0.463392
vt 0.249104 0.392294
vt 0.249104 0.463391
vt 0.364502 0.392294
vt 0.364502 0.463391
vt 0.479899 0.392294
vt 0.479899 0.463391
vn 0.5547 0.7206 -0.4160
vn -0.2242 0.8221 -0.5233
vn 0.1818 0.7085 0.6818
vn 0.6100 0.3962 0.6862
vn 0.2242 0.8221 -0.5233
vn -0.5547 0.7206 -0.4160
vn -0.6100 0.3962 0.6862
vn -0.1818 0.7085 0.6818
vn -0.8184 0.5742 -0.0214
vn 0.4500 0.8769 0.1687
vn 0.8184 0.5742 -0.0214
vn -0.4500 0.8769 0.1687
vn -0.1581 -0.2546 0.9540
vn 0.1581 -0.2546 0.9540
vn 0.4277 0.5742 -0.6980
vn -0.3712 0.8769 0.3053
vn 0.0829 0.7206 0.6884
vn 0.5653 0.8221 0.0675
vn -0.7471 -0.2546 -0.6140
vn -0.9053 -0.2546 -0.3400
vn -0.3907 0.5742 0.7194
vn 0.6376 0.7206 -0.2723
vn 0.0789 0.8769 -0.4741
vn 0.3411 0.8221 0.4558
vn 0.3712 0.8769 0.3053
vn -0.0789 0.8769 -0.4741
vn 0.3907 0.5742 0.7194
vn -0.4277 0.5742 -0.6980
vn -0.0829 0.7206 0.6884
vn -0.5653 0.8221 0.0675
vn 0.9053 -0.2546 -0.3400
vn 0.7471 -0.2546 -0.6140
vn -0.6376 0.7206 -0.2723
vn -0.3411 0.8221 0.4558
vn -0.1104 -0.9045 0.4118
vn -0.4118 -0.9045 -0.1104
vn -0.7887 -0.5773 -0.2113
vn -0.5428 -0.6566 0.5237
vn 0.3279 -0.5606 0.7603
vn -0.4945 -0.5606 -0.6642
vn -0.7249 -0.6566 0.2083
vn -0.2113 -0.5773 0.7887
vn 0.7887 -0.5773 -0.2113
vn 0.4118 -0.9045 -0.1104
vn 0.5428 -0.6566 0.5237
vn 0.2113 -0.5773 0.7887
vn 0.7249 -0.6566 0.2083
vn -0.3279 -0.5606 0.7603
vn 0.4945 -0.5606 -0.6642
vn 0.1104 -0.9045 0.4118
vn 0.1821 -0.6566 -0.7319
vn -0.5773 -0.5773 -0.5773
vn 0.5773 -0.5773 -0.5773
vn -0.1821 -0.6566 -0.7319
vn 0.8224 -0.5606 -0.0961
vn -0.8224 -0.5606 -0.0962
vn 0.5773 -0.5773 0.5773
vn -0.5773 -0.5773 0.5773
vn 0.3015 -0.9045 0.3015
vn 0.3015 -0.9045 -0.3015
vn -0.3015 -0.9045 0.3015
vn -0.3015 -0.9045 -0.3015
vn -0.0011 1.0000 -0.0020
vn -0.9649 0.0401 0.2596
vn 0.7063 0.0424 0.7067
vn 0.2593 0.0391 -0.9650
vn -0.0038 1.0000 0.0001
vn 0.9536 0.0828 -0.2892
vn -0.7271 0.0764 -0.6822
vn -0.2240 0.0783 0.9714
vn 0.0000 -1.0000 0.0000
vn 0.8824 -0.4704 0.0000
vn 0.4412 -0.4704 0.7642
vn 0.0000 1.0000 0.0000
vn 0.3962 0.6100 0.6862
vn 0.7924 0.6100 0.0000
vn -0.4412 -0.4704 0.7642
vn -0.3962 0.6100 0.6862
vn -0.8824 -0.4704 0.0000
vn -0.7924 0.6100 0.0000
vn -0.4412 -0.4704 -0.7642
vn -0.3962 0.6100 -0.6862
vn 0.4412 -0.4704 -0.7642
vn 0.3962 0.6100 -0.6862
usemtl Material.001_PlayerBaseTOP.png.002
s 1
f 1/1/1 2/2/2 3/3/3 4/4/4
f 5/5/5 6/6/6 7/7/7 8/8/8
f 9/9/9 10/10/10 3/3/3
f 2/2/2 9/9/9 3/3/3
f 5/5/5 8/8/8 11/11/11
f 8/8/8 12/12/12 11/11/11
f 11/11/11 12/12/12 10/10/10 9/9/9
f 9/9/9 13/13/13 14/14/14 11/11/11
f 15/15/15 16/16/16 17/17/17 18/18/18
f 15/15/15 19/19/19 20/20/20 21/21/21
f 22/22/22 23/23/23 21/21/21 24/24/24
f 15/15/15 21/21/21 23/23/23 16/16/16
f 25/25/25 26/26/26 27/27/27 28/28/28
f 29/29/29 25/25/25 28/28/28 30/30/30
f 27/27/27 31/31/31 32/32/32 28/28/28
f 27/27/27 26/26/26 33/33/33 34/34/34
f 25/25/25 35/35/35 36/36/36 26/26/26
f 26/26/26 36/36/36 37/37/37 33/33/33
f 34/34/34 38/38/38 39/39/39 27/27/27
f 27/27/27 39/39/39 31/31/31
f 32/32/32 40/40/40 28/28/28
f 30/30/30 28/28/28 40/40/40 41/41/41
f 33/33/33 37/37/37 38/38/38 34/34/34
f 29/29/29 30/30/30 41/41/41 42/42/42
f 25/25/25 29/29/29 42/42/42 35/35/35
f 23/23/23 22/22/22 43/43/43 44/44/44
f 22/22/22 24/24/24 45/45/45 43/43/43
f 17/17/17 46/46/46 47/47/47 18/18/18
f 24/24/24 21/21/21 48/48/48 45/45/45
f 20/20/20 48/48/48 21/21/21
f 15/15/15 49/49/49 19/19/19
f 18/18/18 47/47/47 49/49/49 15/15/15
f 16/16/16 50/50/50 46/46/46 17/17/17
f 23/23/23 44/44/44 50/50/50 16/16/16
f 5/5/5 51/51/51 52/52/52 6/6/6
f 2/2/2 1/1/1 53/53/53 54/54/54
f 11/11/11 55/55/55 51/51/51 5/5/5
f 9/9/9 2/2/2 54/54/54 56/56/56
f 9/9/9 56/56/56 13/13/13
f 14/14/14 55/55/55 11/11/11
f 1/1/1 4/4/4 57/57/57 53/53/53
f 6/6/6 52/52/52 58/58/58 7/7/7
f 4/4/4 3/3/3 59/59/59 57/57/57
f 10/10/10 60/60/60 59/59/59 3/3/3
f 7/7/7 58/58/58 61/61/61 8/8/8
f 62/62/62 12/12/12 8/8/8 61/61/61
f 12/12/12 62/62/62 60/60/60 10/10/10
f 59/59/59 54/54/54 53/53/53 57/57/57
f 58/58/58 52/52/52 51/51/51 61/61/61
f 60/60/60 56/56/56 59/59/59
f 59/59/59 56/56/56 54/54/54
f 61/61/61 51/51/51 55/55/55
f 61/61/61 55/55/55 62/62/62
f 55/55/55 56/56/56 60/60/60 62/62/62
f 14/14/14 13/13/13 56/56/56 55/55/55
f 46/46/46 50/50/50 49/49/49 47/47/47
f 20/20/20 19/19/19 49/49/49 48/48/48
f 48/48/48 44/44/44 43/43/43 45/45/45
f 44/44/44 48/48/48 49/49/49 50/50/50
f 39/39/39 36/36/36 35/35/35 40/40/40
f 40/40/40 35/35/35 42/42/42 41/41/41
f 32/32/32 31/31/31 39/39/39 40/40/40
f 37/37/37 36/36/36 39/39/39 38/38/38
f 63/63/63 64/64/64 65/65/65
f 63/63/63 66/66/66 64/64/64
f 63/63/63 65/65/65 66/66/66
f 67/67/67 68/68/68 69/69/69
f 69/69/69 70/70/70 67/67/67
f 67/67/67 70/70/70 68/68/68
f 71/71/71 72/72/72 73/73/73
f 74/74/74 75/75/75 76/76/76
f 71/71/71 73/73/73 77/77/77
f 74/74/74 78/78/78 75/75/75
f 71/71/71 77/77/77 79/79/79
f 74/74/74 80/80/80 78/78/78
f 71/71/71 79/79/79 81/81/81
f 74/74/74 82/82/82 80/80/80
f 71/71/71 81/81/81 83/83/83
f 74/74/74 84/84/84 82/82/82
f 83/83/83 72/72/72 71/71/71
f 74/74/74 76/76/76 84/84/84
f 72/85/72 76/86/76 75/87/75 73/88/73
f 73/89/73 75/90/75 78/91/78 77/92/77
f 77/92/77 78/91/78 80/93/80 79/94/79
f 79/94/79 80/93/80 82/95/82 81/96/81
f 81/96/81 82/95/82 84/97/84 83/98/83
f 76/86/76 72/85/72 83/98/83 84/97/84
